<svg width="16" height="16" viewBox="0 0 16 16" fill="none" xmlns="http://www.w3.org/2000/svg">
<path d="M15.3057 5.82362L10.648 5.14671L8.56594 0.925658C8.50908 0.810089 8.41552 0.716532 8.29995 0.659664C8.01011 0.516578 7.6579 0.635817 7.51297 0.925658L5.43088 5.14671L0.773238 5.82362C0.644827 5.84196 0.527422 5.9025 0.437535 5.99422C0.328866 6.10591 0.268984 6.25618 0.271048 6.412C0.273112 6.56782 0.336952 6.71645 0.448541 6.82522L3.81841 10.1107L3.02226 14.75C3.00359 14.8579 3.01553 14.9689 3.05674 15.0704C3.09794 15.1719 3.16675 15.2598 3.25536 15.3241C3.34398 15.3885 3.44886 15.4268 3.5581 15.4345C3.66735 15.4423 3.77659 15.4194 3.87344 15.3682L8.03946 13.1779L12.2055 15.3682C12.3192 15.4288 12.4513 15.4489 12.5779 15.4269C12.8971 15.3719 13.1117 15.0692 13.0567 14.75L12.2605 10.1107L15.6304 6.82522C15.7221 6.73533 15.7826 6.61793 15.801 6.48952C15.8505 6.16849 15.6267 5.87131 15.3057 5.82362Z" fill="#FECB1C"/>
</svg>
